<mxfile host="app.diagrams.net" modified="2024-02-16T14:46:35.288Z" agent="Mozilla/5.0 (Windows NT 10.0; Win64; x64) AppleWebKit/537.36 (KHTML, like Gecko) Chrome/121.0.0.0 Safari/537.36" etag="7hjxiLPRyktktq9XHk5U" version="23.1.4" type="device">
  <diagram name="Page-1" id="6marGrNLZa_qgylEvU40">
    <mxGraphModel dx="1687" dy="908" grid="1" gridSize="10" guides="1" tooltips="1" connect="1" arrows="1" fold="1" page="1" pageScale="1" pageWidth="850" pageHeight="1100" math="0" shadow="0">
      <root>
        <mxCell id="0" />
        <mxCell id="1" parent="0" />
        <mxCell id="0YR56FGxFgn9ylpiW8Lz-1" value="SpringMysqlApiApplication" style="swimlane;fontStyle=1;align=center;verticalAlign=top;childLayout=stackLayout;horizontal=1;startSize=29.2;horizontalStack=0;resizeParent=1;resizeParentMax=0;resizeLast=0;collapsible=0;marginBottom=0;" vertex="1" parent="1">
          <mxGeometry x="249" y="170" width="212" height="66.2" as="geometry" />
        </mxCell>
        <mxCell id="0YR56FGxFgn9ylpiW8Lz-2" style="line;strokeWidth=1;fillColor=none;align=left;verticalAlign=middle;spacingTop=-1;spacingLeft=3;spacingRight=3;rotatable=0;labelPosition=right;points=[];portConstraint=eastwest;strokeColor=inherit;" vertex="1" parent="0YR56FGxFgn9ylpiW8Lz-1">
          <mxGeometry y="29.2" width="212" height="8" as="geometry" />
        </mxCell>
        <mxCell id="0YR56FGxFgn9ylpiW8Lz-3" value="+start()" style="text;strokeColor=none;fillColor=none;align=left;verticalAlign=top;spacingLeft=4;spacingRight=4;overflow=hidden;rotatable=0;points=[[0,0.5],[1,0.5]];portConstraint=eastwest;" vertex="1" parent="0YR56FGxFgn9ylpiW8Lz-1">
          <mxGeometry y="37.2" width="212" height="29" as="geometry" />
        </mxCell>
        <mxCell id="0YR56FGxFgn9ylpiW8Lz-4" value="WeatherController" style="swimlane;fontStyle=1;align=center;verticalAlign=top;childLayout=stackLayout;horizontal=1;startSize=29.2;horizontalStack=0;resizeParent=1;resizeParentMax=0;resizeLast=0;collapsible=0;marginBottom=0;" vertex="1" parent="1">
          <mxGeometry x="174" y="320" width="157" height="66.2" as="geometry" />
        </mxCell>
        <mxCell id="0YR56FGxFgn9ylpiW8Lz-5" style="line;strokeWidth=1;fillColor=none;align=left;verticalAlign=middle;spacingTop=-1;spacingLeft=3;spacingRight=3;rotatable=0;labelPosition=right;points=[];portConstraint=eastwest;strokeColor=inherit;" vertex="1" parent="0YR56FGxFgn9ylpiW8Lz-4">
          <mxGeometry y="29.2" width="157" height="8" as="geometry" />
        </mxCell>
        <mxCell id="0YR56FGxFgn9ylpiW8Lz-6" value="+CRUDOperations()" style="text;strokeColor=none;fillColor=none;align=left;verticalAlign=top;spacingLeft=4;spacingRight=4;overflow=hidden;rotatable=0;points=[[0,0.5],[1,0.5]];portConstraint=eastwest;" vertex="1" parent="0YR56FGxFgn9ylpiW8Lz-4">
          <mxGeometry y="37.2" width="157" height="29" as="geometry" />
        </mxCell>
        <mxCell id="0YR56FGxFgn9ylpiW8Lz-7" value="CityController" style="swimlane;fontStyle=1;align=center;verticalAlign=top;childLayout=stackLayout;horizontal=1;startSize=29.2;horizontalStack=0;resizeParent=1;resizeParentMax=0;resizeLast=0;collapsible=0;marginBottom=0;" vertex="1" parent="1">
          <mxGeometry x="392" y="320" width="152" height="66.2" as="geometry" />
        </mxCell>
        <mxCell id="0YR56FGxFgn9ylpiW8Lz-8" style="line;strokeWidth=1;fillColor=none;align=left;verticalAlign=middle;spacingTop=-1;spacingLeft=3;spacingRight=3;rotatable=0;labelPosition=right;points=[];portConstraint=eastwest;strokeColor=inherit;" vertex="1" parent="0YR56FGxFgn9ylpiW8Lz-7">
          <mxGeometry y="29.2" width="152" height="8" as="geometry" />
        </mxCell>
        <mxCell id="0YR56FGxFgn9ylpiW8Lz-9" value="+CRUDOperations()" style="text;strokeColor=none;fillColor=none;align=left;verticalAlign=top;spacingLeft=4;spacingRight=4;overflow=hidden;rotatable=0;points=[[0,0.5],[1,0.5]];portConstraint=eastwest;" vertex="1" parent="0YR56FGxFgn9ylpiW8Lz-7">
          <mxGeometry y="37.2" width="152" height="29" as="geometry" />
        </mxCell>
        <mxCell id="0YR56FGxFgn9ylpiW8Lz-10" value="WeatherService" style="swimlane;fontStyle=1;align=center;verticalAlign=top;childLayout=stackLayout;horizontal=1;startSize=29.2;horizontalStack=0;resizeParent=1;resizeParentMax=0;resizeLast=0;collapsible=0;marginBottom=0;" vertex="1" parent="1">
          <mxGeometry x="41" y="470" width="135" height="66.2" as="geometry" />
        </mxCell>
        <mxCell id="0YR56FGxFgn9ylpiW8Lz-11" style="line;strokeWidth=1;fillColor=none;align=left;verticalAlign=middle;spacingTop=-1;spacingLeft=3;spacingRight=3;rotatable=0;labelPosition=right;points=[];portConstraint=eastwest;strokeColor=inherit;" vertex="1" parent="0YR56FGxFgn9ylpiW8Lz-10">
          <mxGeometry y="29.2" width="135" height="8" as="geometry" />
        </mxCell>
        <mxCell id="0YR56FGxFgn9ylpiW8Lz-12" value="+businessLogic()" style="text;strokeColor=none;fillColor=none;align=left;verticalAlign=top;spacingLeft=4;spacingRight=4;overflow=hidden;rotatable=0;points=[[0,0.5],[1,0.5]];portConstraint=eastwest;" vertex="1" parent="0YR56FGxFgn9ylpiW8Lz-10">
          <mxGeometry y="37.2" width="135" height="29" as="geometry" />
        </mxCell>
        <mxCell id="0YR56FGxFgn9ylpiW8Lz-13" value="CityService" style="swimlane;fontStyle=1;align=center;verticalAlign=top;childLayout=stackLayout;horizontal=1;startSize=29.2;horizontalStack=0;resizeParent=1;resizeParentMax=0;resizeLast=0;collapsible=0;marginBottom=0;" vertex="1" parent="1">
          <mxGeometry x="271" y="470" width="132" height="66.2" as="geometry" />
        </mxCell>
        <mxCell id="0YR56FGxFgn9ylpiW8Lz-14" style="line;strokeWidth=1;fillColor=none;align=left;verticalAlign=middle;spacingTop=-1;spacingLeft=3;spacingRight=3;rotatable=0;labelPosition=right;points=[];portConstraint=eastwest;strokeColor=inherit;" vertex="1" parent="0YR56FGxFgn9ylpiW8Lz-13">
          <mxGeometry y="29.2" width="132" height="8" as="geometry" />
        </mxCell>
        <mxCell id="0YR56FGxFgn9ylpiW8Lz-15" value="+businessLogic()" style="text;strokeColor=none;fillColor=none;align=left;verticalAlign=top;spacingLeft=4;spacingRight=4;overflow=hidden;rotatable=0;points=[[0,0.5],[1,0.5]];portConstraint=eastwest;" vertex="1" parent="0YR56FGxFgn9ylpiW8Lz-13">
          <mxGeometry y="37.2" width="132" height="29" as="geometry" />
        </mxCell>
        <mxCell id="0YR56FGxFgn9ylpiW8Lz-16" value="WeatherRepository" style="swimlane;fontStyle=1;align=center;verticalAlign=top;childLayout=stackLayout;horizontal=1;startSize=29.2;horizontalStack=0;resizeParent=1;resizeParentMax=0;resizeLast=0;collapsible=0;marginBottom=0;" vertex="1" parent="1">
          <mxGeometry x="20" y="620" width="178" height="66.2" as="geometry" />
        </mxCell>
        <mxCell id="0YR56FGxFgn9ylpiW8Lz-17" style="line;strokeWidth=1;fillColor=none;align=left;verticalAlign=middle;spacingTop=-1;spacingLeft=3;spacingRight=3;rotatable=0;labelPosition=right;points=[];portConstraint=eastwest;strokeColor=inherit;" vertex="1" parent="0YR56FGxFgn9ylpiW8Lz-16">
          <mxGeometry y="29.2" width="178" height="8" as="geometry" />
        </mxCell>
        <mxCell id="0YR56FGxFgn9ylpiW8Lz-18" value="+databaseOperations()" style="text;strokeColor=none;fillColor=none;align=left;verticalAlign=top;spacingLeft=4;spacingRight=4;overflow=hidden;rotatable=0;points=[[0,0.5],[1,0.5]];portConstraint=eastwest;" vertex="1" parent="0YR56FGxFgn9ylpiW8Lz-16">
          <mxGeometry y="37.2" width="178" height="29" as="geometry" />
        </mxCell>
        <mxCell id="0YR56FGxFgn9ylpiW8Lz-19" value="CityRepository" style="swimlane;fontStyle=1;align=center;verticalAlign=top;childLayout=stackLayout;horizontal=1;startSize=29.2;horizontalStack=0;resizeParent=1;resizeParentMax=0;resizeLast=0;collapsible=0;marginBottom=0;" vertex="1" parent="1">
          <mxGeometry x="248" y="620" width="178" height="66.2" as="geometry" />
        </mxCell>
        <mxCell id="0YR56FGxFgn9ylpiW8Lz-20" style="line;strokeWidth=1;fillColor=none;align=left;verticalAlign=middle;spacingTop=-1;spacingLeft=3;spacingRight=3;rotatable=0;labelPosition=right;points=[];portConstraint=eastwest;strokeColor=inherit;" vertex="1" parent="0YR56FGxFgn9ylpiW8Lz-19">
          <mxGeometry y="29.2" width="178" height="8" as="geometry" />
        </mxCell>
        <mxCell id="0YR56FGxFgn9ylpiW8Lz-21" value="+databaseOperations()" style="text;strokeColor=none;fillColor=none;align=left;verticalAlign=top;spacingLeft=4;spacingRight=4;overflow=hidden;rotatable=0;points=[[0,0.5],[1,0.5]];portConstraint=eastwest;" vertex="1" parent="0YR56FGxFgn9ylpiW8Lz-19">
          <mxGeometry y="37.2" width="178" height="29" as="geometry" />
        </mxCell>
        <mxCell id="0YR56FGxFgn9ylpiW8Lz-22" value="Weather" style="swimlane;fontStyle=1;align=center;verticalAlign=top;childLayout=stackLayout;horizontal=1;startSize=29.2;horizontalStack=0;resizeParent=1;resizeParentMax=0;resizeLast=0;collapsible=0;marginBottom=0;" vertex="1" parent="1">
          <mxGeometry x="61" y="770" width="96" height="73.2" as="geometry" />
        </mxCell>
        <mxCell id="0YR56FGxFgn9ylpiW8Lz-23" value="-dataModel" style="text;strokeColor=none;fillColor=none;align=left;verticalAlign=top;spacingLeft=4;spacingRight=4;overflow=hidden;rotatable=0;points=[[0,0.5],[1,0.5]];portConstraint=eastwest;" vertex="1" parent="0YR56FGxFgn9ylpiW8Lz-22">
          <mxGeometry y="29.2" width="96" height="29" as="geometry" />
        </mxCell>
        <mxCell id="0YR56FGxFgn9ylpiW8Lz-24" style="line;strokeWidth=1;fillColor=none;align=left;verticalAlign=middle;spacingTop=-1;spacingLeft=3;spacingRight=3;rotatable=0;labelPosition=right;points=[];portConstraint=eastwest;strokeColor=inherit;" vertex="1" parent="0YR56FGxFgn9ylpiW8Lz-22">
          <mxGeometry y="58.2" width="96" height="15" as="geometry" />
        </mxCell>
        <mxCell id="0YR56FGxFgn9ylpiW8Lz-25" value="City" style="swimlane;fontStyle=1;align=center;verticalAlign=top;childLayout=stackLayout;horizontal=1;startSize=29.2;horizontalStack=0;resizeParent=1;resizeParentMax=0;resizeLast=0;collapsible=0;marginBottom=0;" vertex="1" parent="1">
          <mxGeometry x="289" y="770" width="96" height="73.2" as="geometry" />
        </mxCell>
        <mxCell id="0YR56FGxFgn9ylpiW8Lz-26" value="-dataModel" style="text;strokeColor=none;fillColor=none;align=left;verticalAlign=top;spacingLeft=4;spacingRight=4;overflow=hidden;rotatable=0;points=[[0,0.5],[1,0.5]];portConstraint=eastwest;" vertex="1" parent="0YR56FGxFgn9ylpiW8Lz-25">
          <mxGeometry y="29.2" width="96" height="29" as="geometry" />
        </mxCell>
        <mxCell id="0YR56FGxFgn9ylpiW8Lz-27" style="line;strokeWidth=1;fillColor=none;align=left;verticalAlign=middle;spacingTop=-1;spacingLeft=3;spacingRight=3;rotatable=0;labelPosition=right;points=[];portConstraint=eastwest;strokeColor=inherit;" vertex="1" parent="0YR56FGxFgn9ylpiW8Lz-25">
          <mxGeometry y="58.2" width="96" height="15" as="geometry" />
        </mxCell>
        <mxCell id="0YR56FGxFgn9ylpiW8Lz-28" value="InvalidCityException" style="swimlane;fontStyle=1;align=center;verticalAlign=top;childLayout=stackLayout;horizontal=1;startSize=29.2;horizontalStack=0;resizeParent=1;resizeParentMax=0;resizeLast=0;collapsible=0;marginBottom=0;" vertex="1" parent="1">
          <mxGeometry x="579" y="470" width="168" height="66.2" as="geometry" />
        </mxCell>
        <mxCell id="0YR56FGxFgn9ylpiW8Lz-29" style="line;strokeWidth=1;fillColor=none;align=left;verticalAlign=middle;spacingTop=-1;spacingLeft=3;spacingRight=3;rotatable=0;labelPosition=right;points=[];portConstraint=eastwest;strokeColor=inherit;" vertex="1" parent="0YR56FGxFgn9ylpiW8Lz-28">
          <mxGeometry y="29.2" width="168" height="8" as="geometry" />
        </mxCell>
        <mxCell id="0YR56FGxFgn9ylpiW8Lz-30" value="+customException()" style="text;strokeColor=none;fillColor=none;align=left;verticalAlign=top;spacingLeft=4;spacingRight=4;overflow=hidden;rotatable=0;points=[[0,0.5],[1,0.5]];portConstraint=eastwest;" vertex="1" parent="0YR56FGxFgn9ylpiW8Lz-28">
          <mxGeometry y="37.2" width="168" height="29" as="geometry" />
        </mxCell>
        <mxCell id="0YR56FGxFgn9ylpiW8Lz-31" value="GlobalExceptionHandler" style="swimlane;fontStyle=1;align=center;verticalAlign=top;childLayout=stackLayout;horizontal=1;startSize=29.2;horizontalStack=0;resizeParent=1;resizeParentMax=0;resizeLast=0;collapsible=0;marginBottom=0;" vertex="1" parent="1">
          <mxGeometry x="637" y="320" width="196" height="66.2" as="geometry" />
        </mxCell>
        <mxCell id="0YR56FGxFgn9ylpiW8Lz-32" style="line;strokeWidth=1;fillColor=none;align=left;verticalAlign=middle;spacingTop=-1;spacingLeft=3;spacingRight=3;rotatable=0;labelPosition=right;points=[];portConstraint=eastwest;strokeColor=inherit;" vertex="1" parent="0YR56FGxFgn9ylpiW8Lz-31">
          <mxGeometry y="29.2" width="196" height="8" as="geometry" />
        </mxCell>
        <mxCell id="0YR56FGxFgn9ylpiW8Lz-33" value="+handleException()" style="text;strokeColor=none;fillColor=none;align=left;verticalAlign=top;spacingLeft=4;spacingRight=4;overflow=hidden;rotatable=0;points=[[0,0.5],[1,0.5]];portConstraint=eastwest;" vertex="1" parent="0YR56FGxFgn9ylpiW8Lz-31">
          <mxGeometry y="37.2" width="196" height="29" as="geometry" />
        </mxCell>
        <mxCell id="0YR56FGxFgn9ylpiW8Lz-34" value="ControllerAdvice" style="swimlane;fontStyle=1;align=center;verticalAlign=top;childLayout=stackLayout;horizontal=1;startSize=29.2;horizontalStack=0;resizeParent=1;resizeParentMax=0;resizeLast=0;collapsible=0;marginBottom=0;" vertex="1" parent="1">
          <mxGeometry x="630" y="170" width="210" height="66.2" as="geometry" />
        </mxCell>
        <mxCell id="0YR56FGxFgn9ylpiW8Lz-35" style="line;strokeWidth=1;fillColor=none;align=left;verticalAlign=middle;spacingTop=-1;spacingLeft=3;spacingRight=3;rotatable=0;labelPosition=right;points=[];portConstraint=eastwest;strokeColor=inherit;" vertex="1" parent="0YR56FGxFgn9ylpiW8Lz-34">
          <mxGeometry y="29.2" width="210" height="8" as="geometry" />
        </mxCell>
        <mxCell id="0YR56FGxFgn9ylpiW8Lz-36" value="+handleSpecificException()" style="text;strokeColor=none;fillColor=none;align=left;verticalAlign=top;spacingLeft=4;spacingRight=4;overflow=hidden;rotatable=0;points=[[0,0.5],[1,0.5]];portConstraint=eastwest;" vertex="1" parent="0YR56FGxFgn9ylpiW8Lz-34">
          <mxGeometry y="37.2" width="210" height="29" as="geometry" />
        </mxCell>
        <mxCell id="0YR56FGxFgn9ylpiW8Lz-37" value="DataLoader" style="swimlane;fontStyle=1;align=center;verticalAlign=top;childLayout=stackLayout;horizontal=1;startSize=29.2;horizontalStack=0;resizeParent=1;resizeParentMax=0;resizeLast=0;collapsible=0;marginBottom=0;" vertex="1" parent="1">
          <mxGeometry x="304" y="20" width="102" height="66.2" as="geometry" />
        </mxCell>
        <mxCell id="0YR56FGxFgn9ylpiW8Lz-38" style="line;strokeWidth=1;fillColor=none;align=left;verticalAlign=middle;spacingTop=-1;spacingLeft=3;spacingRight=3;rotatable=0;labelPosition=right;points=[];portConstraint=eastwest;strokeColor=inherit;" vertex="1" parent="0YR56FGxFgn9ylpiW8Lz-37">
          <mxGeometry y="29.2" width="102" height="8" as="geometry" />
        </mxCell>
        <mxCell id="0YR56FGxFgn9ylpiW8Lz-39" value="+loadData()" style="text;strokeColor=none;fillColor=none;align=left;verticalAlign=top;spacingLeft=4;spacingRight=4;overflow=hidden;rotatable=0;points=[[0,0.5],[1,0.5]];portConstraint=eastwest;" vertex="1" parent="0YR56FGxFgn9ylpiW8Lz-37">
          <mxGeometry y="37.2" width="102" height="29" as="geometry" />
        </mxCell>
        <mxCell id="0YR56FGxFgn9ylpiW8Lz-40" value="uses" style="curved=1;startArrow=none;endArrow=block;endSize=16;endFill=0;exitX=0.23844763413915093;exitY=1;entryX=0.5003358877388535;entryY=0;rounded=0;" edge="1" parent="1" source="0YR56FGxFgn9ylpiW8Lz-1" target="0YR56FGxFgn9ylpiW8Lz-4">
          <mxGeometry relative="1" as="geometry">
            <Array as="points">
              <mxPoint x="253" y="286" />
            </Array>
          </mxGeometry>
        </mxCell>
        <mxCell id="0YR56FGxFgn9ylpiW8Lz-41" value="uses" style="curved=1;startArrow=none;endArrow=block;endSize=16;endFill=0;exitX=0.7885815890330188;exitY=1;entryX=0.5034950657894737;entryY=0;rounded=0;" edge="1" parent="1" source="0YR56FGxFgn9ylpiW8Lz-1" target="0YR56FGxFgn9ylpiW8Lz-7">
          <mxGeometry relative="1" as="geometry">
            <Array as="points">
              <mxPoint x="469" y="286" />
            </Array>
          </mxGeometry>
        </mxCell>
        <mxCell id="0YR56FGxFgn9ylpiW8Lz-42" value="uses" style="curved=1;startArrow=none;endArrow=block;endSize=16;endFill=0;exitX=0.005929289410827968;exitY=1;entryX=0.5022858796296297;entryY=0;rounded=0;" edge="1" parent="1" source="0YR56FGxFgn9ylpiW8Lz-4" target="0YR56FGxFgn9ylpiW8Lz-10">
          <mxGeometry relative="1" as="geometry">
            <Array as="points">
              <mxPoint x="109" y="436" />
            </Array>
          </mxGeometry>
        </mxCell>
        <mxCell id="0YR56FGxFgn9ylpiW8Lz-43" value="uses" style="curved=1;startArrow=none;endArrow=block;endSize=16;endFill=0;exitX=0.03417300575657908;exitY=1;entryX=0.49564985795454547;entryY=0;rounded=0;" edge="1" parent="1" source="0YR56FGxFgn9ylpiW8Lz-7" target="0YR56FGxFgn9ylpiW8Lz-13">
          <mxGeometry relative="1" as="geometry">
            <Array as="points">
              <mxPoint x="336" y="436" />
            </Array>
          </mxGeometry>
        </mxCell>
        <mxCell id="0YR56FGxFgn9ylpiW8Lz-44" value="uses" style="curved=1;startArrow=none;endArrow=block;endSize=16;endFill=0;exitX=0.5022858796296297;exitY=1;entryX=0.49892468398876405;entryY=0;rounded=0;" edge="1" parent="1" source="0YR56FGxFgn9ylpiW8Lz-10" target="0YR56FGxFgn9ylpiW8Lz-16">
          <mxGeometry relative="1" as="geometry">
            <Array as="points" />
          </mxGeometry>
        </mxCell>
        <mxCell id="0YR56FGxFgn9ylpiW8Lz-45" value="uses" style="curved=1;startArrow=none;endArrow=block;endSize=16;endFill=0;exitX=0.49564985795454547;exitY=1;entryX=0.49677405196629215;entryY=0;rounded=0;" edge="1" parent="1" source="0YR56FGxFgn9ylpiW8Lz-13" target="0YR56FGxFgn9ylpiW8Lz-19">
          <mxGeometry relative="1" as="geometry">
            <Array as="points" />
          </mxGeometry>
        </mxCell>
        <mxCell id="0YR56FGxFgn9ylpiW8Lz-46" value="data mapping" style="curved=1;dashed=1;startArrow=none;endArrow=open;endSize=12;exitX=0.49892468398876405;exitY=1;entryX=0.4980061848958333;entryY=0;rounded=0;" edge="1" parent="1" source="0YR56FGxFgn9ylpiW8Lz-16" target="0YR56FGxFgn9ylpiW8Lz-22">
          <mxGeometry relative="1" as="geometry">
            <Array as="points" />
          </mxGeometry>
        </mxCell>
        <mxCell id="0YR56FGxFgn9ylpiW8Lz-47" value="data mapping" style="curved=1;dashed=1;startArrow=none;endArrow=open;endSize=12;exitX=0.49677405196629215;exitY=1;entryX=0.4940185546875;entryY=0;rounded=0;" edge="1" parent="1" source="0YR56FGxFgn9ylpiW8Lz-19" target="0YR56FGxFgn9ylpiW8Lz-25">
          <mxGeometry relative="1" as="geometry">
            <Array as="points" />
          </mxGeometry>
        </mxCell>
        <mxCell id="0YR56FGxFgn9ylpiW8Lz-48" value="throws" style="curved=1;dashed=1;startArrow=none;endArrow=open;endSize=12;exitX=0.9990172173566879;exitY=0.9041052887529171;entryX=-0.0010928199404761905;entryY=0.16267347706812074;rounded=0;" edge="1" parent="1" source="0YR56FGxFgn9ylpiW8Lz-4" target="0YR56FGxFgn9ylpiW8Lz-28">
          <mxGeometry relative="1" as="geometry">
            <Array as="points">
              <mxPoint x="432" y="436" />
            </Array>
          </mxGeometry>
        </mxCell>
        <mxCell id="0YR56FGxFgn9ylpiW8Lz-49" value="throws" style="curved=1;dashed=1;startArrow=none;endArrow=open;endSize=12;exitX=0.858695775082237;exitY=1;entryX=0.19626185825892828;entryY=0;rounded=0;" edge="1" parent="1" source="0YR56FGxFgn9ylpiW8Lz-7" target="0YR56FGxFgn9ylpiW8Lz-28">
          <mxGeometry relative="1" as="geometry">
            <Array as="points">
              <mxPoint x="569" y="436" />
            </Array>
          </mxGeometry>
        </mxCell>
        <mxCell id="0YR56FGxFgn9ylpiW8Lz-50" value="handles" style="curved=1;dashed=1;startArrow=none;endArrow=block;endSize=16;endFill=0;exitX=0.5000597895408163;exitY=1;entryX=0.731434151785714;entryY=0;rounded=0;" edge="1" parent="1" source="0YR56FGxFgn9ylpiW8Lz-31" target="0YR56FGxFgn9ylpiW8Lz-28">
          <mxGeometry relative="1" as="geometry">
            <Array as="points">
              <mxPoint x="735" y="436" />
            </Array>
          </mxGeometry>
        </mxCell>
        <mxCell id="0YR56FGxFgn9ylpiW8Lz-51" value="extends" style="curved=1;dashed=1;startArrow=none;endArrow=block;endSize=16;endFill=0;exitX=0.5000558035714285;exitY=1;entryX=0.5000597895408163;entryY=0;rounded=0;" edge="1" parent="1" source="0YR56FGxFgn9ylpiW8Lz-34" target="0YR56FGxFgn9ylpiW8Lz-31">
          <mxGeometry relative="1" as="geometry">
            <Array as="points" />
          </mxGeometry>
        </mxCell>
        <mxCell id="0YR56FGxFgn9ylpiW8Lz-52" value="initializes data" style="curved=1;startArrow=none;endArrow=diamondThin;endSize=14;endFill=1;exitX=0.49728094362745096;exitY=1;entryX=0.49869177476415094;entryY=0;rounded=0;" edge="1" parent="1" source="0YR56FGxFgn9ylpiW8Lz-37" target="0YR56FGxFgn9ylpiW8Lz-1">
          <mxGeometry relative="1" as="geometry">
            <Array as="points" />
          </mxGeometry>
        </mxCell>
      </root>
    </mxGraphModel>
  </diagram>
</mxfile>
